<?xml version="1.0" encoding="UTF-8"?>
<mxfile host="app.diagrams.net" modified="2024-06-07T00:00:00.000Z" agent="NetworkView IS" etag="sample" version="21.5.0" type="device">
  <diagram name="Сетевая архитектура" id="network-sample">
    <mxGraphModel dx="1422" dy="794" grid="1" gridSize="10" guides="1" tooltips="1" connect="1" arrows="1" fold="1" page="1" pageScale="1" pageWidth="827" pageHeight="1169" math="0" shadow="0">
      <root>
        <mxCell id="0" />
        <mxCell id="1" parent="0" />
        
        <!-- Интернет -->
        <mxCell id="internet" value="Интернет" style="ellipse;whiteSpace=wrap;html=1;fillColor=#e1d5e7;strokeColor=#9673a6;" vertex="1" parent="1">
          <mxGeometry x="364" y="20" width="100" height="60" as="geometry" />
        </mxCell>
        
        <!-- Главный маршрутизатор -->
        <mxCell id="router1" value="Главный&#xa;маршрутизатор&#xa;192.168.1.1" style="rounded=1;whiteSpace=wrap;html=1;fillColor=#d5e8d4;strokeColor=#82b366;" vertex="1" parent="1">
          <mxGeometry x="334" y="140" width="160" height="80" as="geometry" />
        </mxCell>
        
        <!-- Коммутатор уровня ядра -->
        <mxCell id="switch1" value="Коммутатор ядра&#xa;192.168.1.10" style="rounded=1;whiteSpace=wrap;html=1;fillColor=#dae8fc;strokeColor=#6c8ebf;" vertex="1" parent="1">
          <mxGeometry x="334" y="280" width="160" height="80" as="geometry" />
        </mxCell>
        
        <!-- Коммутатор уровня доступа 1 -->
        <mxCell id="switch2" value="Коммутатор доступа 1&#xa;192.168.1.20" style="rounded=1;whiteSpace=wrap;html=1;fillColor=#dae8fc;strokeColor=#6c8ebf;" vertex="1" parent="1">
          <mxGeometry x="154" y="420" width="160" height="80" as="geometry" />
        </mxCell>
        
        <!-- Коммутатор уровня доступа 2 -->
        <mxCell id="switch3" value="Коммутатор доступа 2&#xa;192.168.1.21" style="rounded=1;whiteSpace=wrap;html=1;fillColor=#dae8fc;strokeColor=#6c8ebf;" vertex="1" parent="1">
          <mxGeometry x="514" y="420" width="160" height="80" as="geometry" />
        </mxCell>
        
        <!-- Сервер 1 -->
        <mxCell id="server1" value="Файловый сервер&#xa;192.168.1.100&#xa;Windows Server 2019" style="rounded=1;whiteSpace=wrap;html=1;fillColor=#fff2cc;strokeColor=#d6b656;" vertex="1" parent="1">
          <mxGeometry x="54" y="560" width="160" height="80" as="geometry" />
        </mxCell>
        
        <!-- Сервер 2 -->
        <mxCell id="server2" value="Web сервер&#xa;192.168.1.101&#xa;Ubuntu 20.04" style="rounded=1;whiteSpace=wrap;html=1;fillColor=#fff2cc;strokeColor=#d6b656;" vertex="1" parent="1">
          <mxGeometry x="254" y="560" width="160" height="80" as="geometry" />
        </mxCell>
        
        <!-- Рабочая станция 1 -->
        <mxCell id="workstation1" value="Рабочая станция 1&#xa;192.168.1.201&#xa;Windows 10" style="rounded=1;whiteSpace=wrap;html=1;fillColor=#f8cecc;strokeColor=#b85450;" vertex="1" parent="1">
          <mxGeometry x="454" y="560" width="160" height="80" as="geometry" />
        </mxCell>
        
        <!-- Рабочая станция 2 -->
        <mxCell id="workstation2" value="Рабочая станция 2&#xa;192.168.1.202&#xa;Windows 10" style="rounded=1;whiteSpace=wrap;html=1;fillColor=#f8cecc;strokeColor=#b85450;" vertex="1" parent="1">
          <mxGeometry x="614" y="560" width="160" height="80" as="geometry" />
        </mxCell>
        
        <!-- Принтер -->
        <mxCell id="printer1" value="Принтер HP&#xa;192.168.1.150" style="rounded=1;whiteSpace=wrap;html=1;fillColor=#e1d5e7;strokeColor=#9673a6;" vertex="1" parent="1">
          <mxGeometry x="54" y="700" width="120" height="60" as="geometry" />
        </mxCell>
        
        <!-- Соединения -->
        
        <!-- Интернет -> Маршрутизатор -->
        <mxCell id="edge1" value="WAN&#xa;1 Gbps" style="endArrow=classic;html=1;rounded=0;" edge="1" parent="1" source="internet" target="router1">
          <mxGeometry width="50" height="50" relative="1" as="geometry">
            <mxPoint x="414" y="90" as="sourcePoint" />
            <mxPoint x="414" y="130" as="targetPoint" />
          </mxGeometry>
        </mxCell>
        
        <!-- Маршрутизатор -> Коммутатор ядра -->
        <mxCell id="edge2" value="Trunk&#xa;1 Gbps" style="endArrow=classic;html=1;rounded=0;" edge="1" parent="1" source="router1" target="switch1">
          <mxGeometry width="50" height="50" relative="1" as="geometry">
            <mxPoint x="414" y="230" as="sourcePoint" />
            <mxPoint x="414" y="270" as="targetPoint" />
          </mxGeometry>
        </mxCell>
        
        <!-- Коммутатор ядра -> Коммутатор доступа 1 -->
        <mxCell id="edge3" value="Trunk&#xa;1 Gbps" style="endArrow=classic;html=1;rounded=0;" edge="1" parent="1" source="switch1" target="switch2">
          <mxGeometry width="50" height="50" relative="1" as="geometry">
            <mxPoint x="334" y="360" as="sourcePoint" />
            <mxPoint x="274" y="410" as="targetPoint" />
          </mxGeometry>
        </mxCell>
        
        <!-- Коммутатор ядра -> Коммутатор доступа 2 -->
        <mxCell id="edge4" value="Trunk&#xa;1 Gbps" style="endArrow=classic;html=1;rounded=0;" edge="1" parent="1" source="switch1" target="switch3">
          <mxGeometry width="50" height="50" relative="1" as="geometry">
            <mxPoint x="494" y="360" as="sourcePoint" />
            <mxPoint x="554" y="410" as="targetPoint" />
          </mxGeometry>
        </mxCell>
        
        <!-- Коммутатор доступа 1 -> Сервер 1 -->
        <mxCell id="edge5" value="Access&#xa;1 Gbps" style="endArrow=classic;html=1;rounded=0;" edge="1" parent="1" source="switch2" target="server1">
          <mxGeometry width="50" height="50" relative="1" as="geometry">
            <mxPoint x="194" y="510" as="sourcePoint" />
            <mxPoint x="154" y="550" as="targetPoint" />
          </mxGeometry>
        </mxCell>
        
        <!-- Коммутатор доступа 1 -> Сервер 2 -->
        <mxCell id="edge6" value="Access&#xa;1 Gbps" style="endArrow=classic;html=1;rounded=0;" edge="1" parent="1" source="switch2" target="server2">
          <mxGeometry width="50" height="50" relative="1" as="geometry">
            <mxPoint x="274" y="510" as="sourcePoint" />
            <mxPoint x="314" y="550" as="targetPoint" />
          </mxGeometry>
        </mxCell>
        
        <!-- Коммутатор доступа 2 -> Рабочая станция 1 -->
        <mxCell id="edge7" value="Access&#xa;100 Mbps" style="endArrow=classic;html=1;rounded=0;" edge="1" parent="1" source="switch3" target="workstation1">
          <mxGeometry width="50" height="50" relative="1" as="geometry">
            <mxPoint x="554" y="510" as="sourcePoint" />
            <mxPoint x="514" y="550" as="targetPoint" />
          </mxGeometry>
        </mxCell>
        
        <!-- Коммутатор доступа 2 -> Рабочая станция 2 -->
        <mxCell id="edge8" value="Access&#xa;100 Mbps" style="endArrow=classic;html=1;rounded=0;" edge="1" parent="1" source="switch3" target="workstation2">
          <mxGeometry width="50" height="50" relative="1" as="geometry">
            <mxPoint x="634" y="510" as="sourcePoint" />
            <mxPoint x="674" y="550" as="targetPoint" />
          </mxGeometry>
        </mxCell>
        
        <!-- Коммутатор доступа 1 -> Принтер -->
        <mxCell id="edge9" value="Access&#xa;100 Mbps" style="endArrow=classic;html=1;rounded=0;" edge="1" parent="1" source="switch2" target="printer1">
          <mxGeometry width="50" height="50" relative="1" as="geometry">
            <mxPoint x="154" y="510" as="sourcePoint" />
            <mxPoint x="114" y="690" as="targetPoint" />
          </mxGeometry>
        </mxCell>
        
        <!-- Метаданные устройств (в виде заметок) -->
        <mxCell id="metadata1" value="Метаданные:&#xa;Тип: Router&#xa;Модель: Cisco ISR 4321&#xa;Статус: Online&#xa;Uptime: 45 дней&#xa;CPU: 23%&#xa;Memory: 45%" style="shape=note;whiteSpace=wrap;html=1;size=14;verticalAlign=top;fillColor=#ffffcc;strokeColor=#d6b656;" vertex="1" parent="1">
          <mxGeometry x="520" y="120" width="180" height="120" as="geometry" />
        </mxCell>
        
        <mxCell id="metadata2" value="Метаданные:&#xa;Тип: Switch&#xa;Модель: Cisco Catalyst 2960&#xa;Статус: Online&#xa;VLAN: 10,20,30&#xa;Ports: 24&#xa;Load: 12%" style="shape=note;whiteSpace=wrap;html=1;size=14;verticalAlign=top;fillColor=#ffffcc;strokeColor=#d6b656;" vertex="1" parent="1">
          <mxGeometry x="520" y="260" width="180" height="120" as="geometry" />
        </mxCell>
        
        <!-- Легенда -->
        <mxCell id="legend" value="Легенда:&#xa;🟢 Маршрутизаторы&#xa;🔵 Коммутаторы&#xa;🟡 Серверы&#xa;🔴 Рабочие станции&#xa;🟣 Периферия" style="rounded=1;whiteSpace=wrap;html=1;fillColor=#f5f5f5;strokeColor=#666666;align=left;verticalAlign=top;" vertex="1" parent="1">
          <mxGeometry x="20" y="20" width="200" height="120" as="geometry" />
        </mxCell>
        
      </root>
    </mxGraphModel>
  </diagram>
</mxfile> 